/* XPM */
static char *result[] = {
/* columns rows colors chars-per-pixel */
"40 40 140 2 ",
"   c black",
".  c #010100",
"X  c #030100",
"o  c #030200",
"O  c #040300",
"+  c #050300",
"@  c #060401",
"#  c #0A0602",
"$  c #0A0702",
"%  c #0D0702",
"&  c #130C04",
"*  c #150F04",
"=  c #170E04",
"-  c #180E04",
";  c #191205",
":  c #1F1206",
">  c #211807",
",  c #221A08",
"<  c #241D09",
"1  c #271C09",
"2  c #251D0A",
"3  c #2A1908",
"4  c #2E1B09",
"5  c #29200A",
"6  c #2C220B",
"7  c #2C230C",
"8  c #3F270C",
"9  c #472A0E",
"0  c #482B0E",
"q  c #43310F",
"w  c #583511",
"e  c #593512",
"r  c #5A3612",
"t  c #5D3712",
"y  c #6D4116",
"u  c #704317",
"i  c #744617",
"p  c #784818",
"a  c #794918",
"s  c #794919",
"d  c #7D4B19",
"f  c #7D4B1A",
"g  c #7A4D19",
"h  c #795D1E",
"j  c #82511B",
"k  c #85501B",
"l  c #B26B24",
"z  c #A67526",
"x  c #B87526",
"c  c #B97527",
"v  c #C87929",
"b  c #AE892D",
"n  c #D88A2E",
"m  c #DA8E2F",
"M  c #DC9230",
"N  c #E09A33",
"B  c #DEAE3B",
"V  c #E2A136",
"C  c #E5A336",
"Z  c #EFA635",
"A  c #E3AB39",
"S  c #EFAA39",
"D  c #EFAB3A",
"F  c #EAAD3A",
"G  c #EAAE3A",
"H  c #EFAD38",
"J  c #EFAD3A",
"K  c #EFAE3A",
"L  c #F0A937",
"P  c #F0AB39",
"I  c #F1AC3B",
"U  c #F1AD3B",
"Y  c #F1AD3C",
"T  c #F1AF3C",
"R  c #F2AF3D",
"E  c #F2AF3E",
"W  c #E2B63D",
"Q  c #ECB13C",
"!  c #EDB13C",
"~  c #EDB33C",
"^  c #EEB43D",
"/  c #EEB53D",
"(  c #F1B33C",
")  c #F2B03E",
"_  c #F3B03E",
"`  c #F2B03F",
"'  c #F2B13F",
"]  c #F1B23F",
"[  c #F2B53C",
"{  c #F2B53D",
"}  c #F2B83D",
"|  c #F3B83D",
" . c #F3BC3F",
".. c #F4BC3F",
"X. c #EABC40",
"o. c #F2B140",
"O. c #F3B443",
"+. c #F2B545",
"@. c #F3B545",
"#. c #F1B644",
"$. c #F3B645",
"%. c #F3B646",
"&. c #F2B942",
"*. c #F5BE40",
"=. c #F4BE42",
"-. c #F2B946",
";. c #F2B848",
":. c #F3BA49",
">. c #F2BB49",
",. c #F3B84A",
"<. c #F3B94A",
"1. c #F4B949",
"2. c #F4BA4B",
"3. c #F4BB4B",
"4. c #F4BB4C",
"5. c #F5BC4C",
"6. c #F5BC4D",
"7. c #F5BD4E",
"8. c #F5BE4F",
"9. c #F6BE4F",
"0. c #F3C040",
"q. c #F3C041",
"w. c #F1C343",
"e. c #F5C141",
"r. c #F6C141",
"t. c #F4C142",
"y. c #F5C143",
"u. c #F6C342",
"i. c #F7C342",
"p. c #F6C343",
"a. c #F7C442",
"s. c #F7C643",
"d. c #F6C344",
"f. c #F7C544",
"g. c #F8C744",
"h. c #F5C14A",
"j. c #F5C25C",
"k. c #F4C360",
"l. c #F4C871",
"z. c #F7D185",
/* pixels */
"                                                                                ",
"                                                                                ",
"                                                                                ",
"                                                                                ",
"                                                                                ",
"                                                                                ",
"                                                                                ",
"                                                                                ",
"                                                                                ",
"                                                                                ",
"                                                                                ",
"                                o * , 2 < > & X                                 ",
"                            O q b W t.d.p.q.B z 8 +                             ",
"                          $ h X.h.-.<.,.,.:.&.f.A g %                           ",
"                        O h w.k.l.8.9.9.9.9.7.;.y.~ j #                         ",
"                        q X.>.z.j.9.9.9.9.9.9.7.<.f.V e .                       ",
"                      O b =.4.9.9.9.9.9.9.9.9.9.7.#.u.c -                       ",
"                      ; W ] 6.9.9.9.9.9.9.9.9.9.9.+.i.N 9                       ",
"                      5 0.U $.7.9.9.9.9.9.9.9.9.2.` [ G y                       ",
"                      7 r.I ) @.6.9.9.9.9.9.7.1.' _ ( / a                       ",
"                      6 e.I _ _ o.%.3.6.5.1.O.E _ _ ( Q s                       ",
"                      1 q.T _ _ _ _ R ) R R _ _ _ R  .C i                       ",
"                      = B ( R _ _ _ _ _ _ _ _ R U S g.m r                       ",
"                      o z a.J R _ _ _ _ _ _ _ P Z } / v 3                       ",
"                        8 A *.Y R _ _ _ _ _ _ L H s.n k @                       ",
"                        + g ~ i.K Y R _ _ R D | s.M l :                         ",
"                          % j V u.i.{ ( ( ..g./ n l 4                           ",
"                            # w x N F ^ ! C m v k :                             ",
"                              . - 0 u d f p t 3 @                               ",
"                                                                                ",
"                                                                                ",
"                                                                                ",
"                                                                                ",
"                                                                                ",
"                                                                                ",
"                                                                                ",
"                                                                                ",
"                                                                                ",
"                                                                                ",
"                                                                                "
};
