/* XPM */
static char *result[] = {
/* columns rows colors chars-per-pixel */
"40 40 128 2 ",
"   c black",
".  c #000100",
"X  c #000001",
"o  c #010001",
"O  c #000200",
"+  c #010002",
"@  c #020002",
"#  c #020102",
"$  c #030003",
"%  c #020103",
"&  c #030103",
"*  c #030203",
"=  c #060007",
"-  c #0F000F",
";  c #0F0010",
":  c #130013",
">  c #130014",
",  c #140015",
"<  c #150015",
"1  c #1B001C",
"2  c #240025",
"3  c #240026",
"4  c #3A0D3B",
"5  c #3D0B3E",
"6  c #3D0B3F",
"7  c #3A0D3C",
"8  c #3D0C3F",
"9  c #3F0541",
"0  c #4B084C",
"q  c #4B0B4D",
"w  c #4B154D",
"e  c #4B164D",
"r  c #510953",
"t  c #4F1651",
"y  c #7E2F80",
"u  c #7F2F80",
"i  c #7F2F81",
"p  c #7F2F82",
"a  c #852E87",
"s  c #803082",
"d  c #803182",
"f  c #803183",
"g  c #813183",
"h  c #8F3692",
"j  c #903692",
"k  c #923695",
"l  c #CD3DD1",
"z  c #CE3DD2",
"x  c #C15DC4",
"c  c #C15EC4",
"v  c #C45DC7",
"b  c #D341D7",
"n  c #D34BD7",
"m  c #D34CD7",
"M  c #D441D8",
"N  c #D642D9",
"B  c #D642DA",
"V  c #D743DB",
"C  c #D74BDB",
"Z  c #D54CD9",
"A  c #D74CDB",
"S  c #D84CDB",
"D  c #DA4BDE",
"F  c #DB4BDE",
"G  c #DA4BDF",
"H  c #DB4BDF",
"J  c #D84CDC",
"K  c #DA4CDE",
"L  c #DA4DDE",
"P  c #D551D8",
"I  c #D551D9",
"U  c #DB52DF",
"Y  c #D969DC",
"T  c #D96ADC",
"R  c #DB6EDD",
"E  c #DB6EDE",
"W  c #DA72DD",
"Q  c #E04FE3",
"!  c #E04EE4",
"~  c #E04FE4",
"^  c #E257E5",
"/  c #E158E5",
"(  c #E258E5",
")  c #E259E6",
"_  c #E25AE6",
"`  c #E559E8",
"'  c #E064E3",
"]  c #E064E4",
"[  c #E86CEC",
"{  c #E96EEC",
"}  c #E96FEC",
"|  c #EA6EED",
" . c #E478E7",
".. c #E976EC",
"X. c #E977EC",
"o. c #E57AE8",
"O. c #E67AE8",
"+. c #E67AE9",
"@. c #E979EC",
"#. c #EA78ED",
"$. c #E97FEC",
"%. c #ED7CF0",
"&. c #ED7DF0",
"*. c #ED7EF0",
"=. c #F376F7",
"-. c #F475F7",
";. c #F478F7",
":. c #F475F8",
">. c #F479F8",
",. c #F47AF8",
"<. c #F57BF8",
"1. c #F57AF9",
"2. c #F57BF9",
"3. c #F67BF9",
"4. c #E980EC",
"5. c #EA80ED",
"6. c #F485F7",
"7. c #F48DF7",
"8. c #F58DF7",
"9. c #F680F9",
"0. c #F681F9",
"q. c #F781FA",
"w. c #F783FA",
"e. c #F585F8",
"r. c #F586F8",
"t. c #F883FB",
"y. c #F884FB",
"u. c #F88FFB",
/* pixels */
"                                                                                ",
"                                                                                ",
"                                                                                ",
"                                                                                ",
"                                  o @ @ @ @ o                                   ",
"                            + % . .         . . % +                             ",
"                        o #       1 4 e e 4 1       # o                         ",
"                      $ .   2 u c o.#.} } #.o.c i 2   . $                       ",
"                    &   < j 4.2.` H Q P P Q H ` ,.4.j <   &                     ",
"                  #   9 E w.M L -.%. .Y Y  .%.:.S b w.E 9   #                   ",
"                &   0 e.] l 9.W f 8 > = = > 8 f W 0.l ] e.0   &                 ",
"              $   9 e.I n u.a ;     . . . .     - a u.n I e.9   $               ",
"            o . < R ] n 7.r   O & @ o     o @ & O   r 7.n ] R , . o             ",
"            #   h y.l u.r   * o                 o *   r u.l y.k   #             ",
"          +   2 4.V q.a   *                         *   a q.V 4.3   +           ",
"          %   y 3.L W ; O o                         o O ; W K 1.y   %           ",
"          .   c ) =.g   &                             &   f ;._ c   .           ",
"        o . 1 +.F &.8   @                             @   6 &.F +.1 . o         ",
"        @   7 @.~  .> . o                             o . >  .! ..4   @         ",
"        @   w { I Y = .                                 . = T P | t   $         ",
"        @   w [ I Y = .                                 . = T P | t   $         ",
"        @   7 X.!  .> . o                             o . >  .~ ..4   @         ",
"        o . 1 O.G *.6   @                             @   6 *.G +.1 . o         ",
"          .   x ( ;.d   &                             &   d ;.( x   .           ",
"          %   i <.J W - O o                         o O - W A <.i   %           ",
"          +   3 5.b 0.a   *                         *   a q.B 4.3   +           ",
"            #   k w.l u.r   * o                 o *   r u.z t.k   #             ",
"            o . , E ] m 7.r   O & @ o     o @ & O   r 8.Z ' E , . o             ",
"              $   9 r.I m u.a -     . . . .     - a u.Z U 6.9   $               ",
"                &   q r.] l q.W d 5 : = = : 5 s W q.z ' 6.q   &                 ",
"                  #   9 E t.N A ;.&. .T T  .&.;.C N t.E 9   #                   ",
"                    &   , k 4.<.^ D ~ P P ~ H / >.$.k ,   &                     ",
"                      $ .   3 i x +...| | ..o.v p 3   . $                       ",
"                        o #       1 4 t t 4 1 X     # o                         ",
"                            + % . .         . . # +                             ",
"                                  o @ $ $ @ o                                   ",
"                                                                                ",
"                                                                                ",
"                                                                                ",
"                                                                                "
};
