/* XPM */
static char *result[] = {
/* columns rows colors chars-per-pixel */
"40 40 76 1 ",
"  c black",
". c #010000",
"X c #010100",
"o c #020100",
"O c #020200",
"+ c #020201",
"@ c #030201",
"# c #030301",
"$ c #090703",
"% c #0A0903",
"& c #0E0C04",
"* c #0F0D05",
"= c #141207",
"- c #1C1809",
"; c #231F0C",
": c #241F0C",
"> c #2B260F",
", c #2C260F",
"< c #2E2810",
"1 c #312B11",
"2 c #342D12",
"3 c #362F12",
"4 c #372F12",
"5 c #50461C",
"6 c #54491D",
"7 c #594D1E",
"8 c #5A4E1F",
"9 c #79692A",
"0 c #907D32",
"q c #907E32",
"w c #938033",
"e c #A18C37",
"r c #A48F39",
"t c #A59039",
"y c #A69139",
"u c #A8923A",
"i c #A9933A",
"p c #AA943A",
"a c #AA943B",
"s c #B69E3F",
"d c #C7AD45",
"f c #CDB347",
"g c #D2B749",
"h c #D6BA4A",
"j c #DEC14D",
"k c #E2C54F",
"l c #E3C54F",
"z c #E6C850",
"x c #F2D354",
"c c #F5D655",
"v c #F6D656",
"b c #F7D756",
"n c #F9D957",
"m c #FAD957",
"M c #FADA57",
"N c #FBDA57",
"B c #FBDB57",
"V c #FCDB58",
"C c #FDDC58",
"Z c #FEDD58",
"A c #FFDE59",
"S c #FFDF59",
"D c #FFE059",
"F c #FFE15A",
"G c #FFE25A",
"H c #FFE45B",
"J c #FFE55B",
"K c #FFE65C",
"L c #FFE75C",
"P c #FFE85D",
"I c #FFE95D",
"U c #FFEB5E",
"Y c #FFEC5E",
"T c #FFED5F",
"R c #FFEE5F",
"E c #FFF060",
/* pixels */
"                                        ",
"                                        ",
"                                        ",
"                                        ",
"                                        ",
"                                        ",
"                                        ",
"               X#      #X               ",
"             X+   %&&%   +X             ",
"            @  ;9szxxzs9;  @            ",
"           # *wbUIGFFGIUbw* #           ",
"          # 1jRSNBCZZCBNSRj1 #          ",
"         @ 3bKnZZAZAAZAZZnKb3 @         ",
"        X =zKMAZZAAAAAAZZAMKz= X        ",
"        O rYnAZZAAAAAAAAZZAnYr O        ",
"       O 4FZZZZAAAAAAAAAAZZZZF3 O       ",
"       @ 0YMAZAAAAAAAAAAAAZAMYq @       ",
"        @hHCZAAAAZAZZAZAAAAZCJgo        ",
"      X -vDZZAAAZAZVVZAZAAAZZDc- X      ",
"      X ,mSZAAAZAZVKKVZAZAAAZSm> X      ",
"      o 2VAZAAZAZNTeeTNZAZAAZSM< o      ",
"      X :mSZZZAZNYi  iYNZAZZZSm; X      ",
"        $kGCZAZNYu    uYNZAZCGl$        ",
"       O tUNAZNYu  oo  uYNZANUr o       ",
"       @ 6PBZMYu  O  O  uYMZVL5 @       ",
"          fPbYu  O    O  uYbPd          ",
"        O 2ZEy  O      O  yEZ2 O        ",
"         # 8p  O        O  a7 #         ",
"          X   X          X   X          ",
"           X.              .X           ",
"                                        ",
"                                        ",
"                                        ",
"                                        ",
"                                        ",
"                                        ",
"                                        ",
"                                        ",
"                                        ",
"                                        "
};
