/* XPM */
static char *result[] = {
/* columns rows colors chars-per-pixel */
"40 40 78 1 ",
"  c black",
". c #010000",
"X c #010100",
"o c #020100",
"O c #020200",
"+ c #030201",
"@ c #030301",
"# c #090803",
"$ c #0A0903",
"% c #0B0903",
"& c #0E0C04",
"* c #0F0D05",
"= c #131106",
"- c #1A1609",
"; c #1A1709",
": c #201C0B",
"> c #211C0B",
", c #231F0C",
"< c #2E2810",
"1 c #2F2910",
"2 c #332C11",
"3 c #342D12",
"4 c #352E12",
"5 c #362F12",
"6 c #383113",
"7 c #393113",
"8 c #50461B",
"9 c #53481C",
"0 c #5A4E1F",
"q c #796A2A",
"w c #937F33",
"e c #938033",
"r c #A18C37",
"t c #A48F39",
"y c #A69039",
"u c #A69139",
"i c #A7923A",
"p c #A8923A",
"a c #A9933A",
"s c #AA943B",
"d c #B59E3F",
"f c #CAB046",
"g c #CDB247",
"h c #D6BA4A",
"j c #D7BB4A",
"k c #DDC04D",
"l c #E2C54F",
"z c #E3C54F",
"x c #E3C64F",
"c c #E4C64F",
"v c #F2D354",
"b c #F5D655",
"n c #F6D655",
"m c #F6D656",
"M c #F7D656",
"N c #F7D756",
"B c #F9D957",
"V c #FADA57",
"C c #FBDA57",
"Z c #FBDB57",
"A c #FCDB58",
"S c #FDDC58",
"D c #FDDD58",
"F c #FEDD58",
"G c #FFDE59",
"H c #FFDF59",
"J c #FFE059",
"K c #FFE15A",
"L c #FFE25A",
"P c #FFE45B",
"I c #FFE65C",
"U c #FFE85D",
"Y c #FFE95D",
"T c #FFEB5E",
"R c #FFEC5E",
"E c #FFED5F",
"W c #FFEE5F",
"Q c #FFF060",
/* pixels */
"                                        ",
"                                        ",
"                                        ",
"                                        ",
"                                        ",
"                                        ",
"                  XOOX                  ",
"               +o      +O               ",
"             O   %,65-@  OX             ",
"            @  9pcBSSbhe5  @            ",
"           X 3gUTLHGGJPRKt= @           ",
"          X 0FUZCSFFFFSVFEz5 @          ",
"          . sQNFGFFGGFFGFBIN< +         ",
"          .  uRVFGFGGGGFFGVIk* X        ",
"           X  pRCFGFGGGGFFGBWw +        ",
"            O  pRCFGFGGGGFFFHm: X       ",
"             O  pRCFGFGGGGFFCTq @       ",
"              O  pRCFGFGGGGGZYd         ",
"               O  aEAFGGGGGFSLz#        ",
"                o  rIAFGGGGGFKv&        ",
"                o  rIAFGGGGGFKv&        ",
"               O  pEAFGGGGGFSLz#        ",
"              O  iRCFGFGGGGGZYd         ",
"             O  iRCFGFGGGGFFCTq @       ",
"            O  iRCFGFGGGGFFFHM> X       ",
"           X  iRCFGFGGGGFFGBWe +        ",
"             yRCFGFGGGGFFGVIk* X        ",
"          X aQNFGFFGGFFGFBIn1 +         ",
"          X 0FUACSFFFFSVFEl2 @          ",
"           X 4fITLHGGJPRKt= @           ",
"            @  8txBDSnje5  +            ",
"             O   $,75;@  OX             ",
"               +O      +O               ",
"                  XOOX                  ",
"                                        ",
"                                        ",
"                                        ",
"                                        ",
"                                        ",
"                                        "
};
