/* XPM */
static char *result[] = {
/* columns rows colors chars-per-pixel */
"40 40 81 1 ",
"  c black",
". c #010000",
"X c #010100",
"o c #020100",
"O c #020200",
"+ c #020201",
"@ c #030201",
"# c #030301",
"$ c #040401",
"% c #0A0903",
"& c #0E0C04",
"* c #0F0D05",
"= c #141207",
"- c #1A1709",
"; c #1D190A",
": c #231F0C",
"> c #241F0C",
", c #312B11",
"< c #322B11",
"1 c #332C11",
"2 c #342D12",
"3 c #352E12",
"4 c #362F12",
"5 c #373012",
"6 c #373013",
"7 c #383013",
"8 c #383113",
"9 c #50461C",
"0 c #594D1E",
"q c #5A4E1F",
"w c #79692A",
"e c #937F33",
"r c #938033",
"t c #A18C37",
"y c #A48E39",
"u c #A48F39",
"i c #A69039",
"p c #A69139",
"a c #A7923A",
"s c #A8923A",
"d c #A9933A",
"f c #A9933B",
"g c #AA943A",
"h c #B69F3F",
"j c #C7AD45",
"k c #CDB347",
"l c #D7BB4A",
"z c #DEC14D",
"x c #E3C54F",
"c c #E3C64F",
"v c #E6C850",
"b c #E6C950",
"n c #E7C950",
"m c #F2D354",
"M c #F6D655",
"N c #F6D656",
"B c #F7D756",
"V c #F8D856",
"C c #F9D957",
"Z c #FAD957",
"A c #FADA57",
"S c #FBDA57",
"D c #FBDB57",
"F c #FCDB58",
"G c #FDDC58",
"H c #FEDD58",
"J c #FFDE59",
"K c #FFDF59",
"L c #FFE059",
"P c #FFE15A",
"I c #FFE25A",
"U c #FFE45B",
"Y c #FFE65C",
"T c #FFE75C",
"R c #FFE85D",
"E c #FFE95D",
"W c #FFEB5E",
"Q c #FFEC5E",
"! c #FFED5F",
"~ c #FFEE5F",
"^ c #FFF060",
/* pixels */
"                                        ",
"                                        ",
"                                        ",
"                                        ",
"                                        ",
"                                        ",
"                  XoOX                  ",
"               O@      O@               ",
"             XO  $;38:%   O             ",
"            @  4elNGGCxu9  #            ",
"           # =yPQULJJKIWTk2 X           ",
"          # 6bQHAGHHHHGSFRHq X          ",
"         @ ,BYCHJHHJJHHJHB^g .          ",
"        X *zYAJHHJJJJHJHAQp             ",
"        + r~CJHHJJJJHJHSQs  X           ",
"       X >BKHHHJJJJHJHSQs  O            ",
"       # wWSHHJJJJHJHSQs  O             ",
"         hEDJJJJJHJHSQs  O              ",
"        %vIGHJJJJJHF!d  O               ",
"        &mPHJJJJJHFYt  o                ",
"        &mPHJJJJJHFYt  o                ",
"        %vIGHJJJJJHF!s  O               ",
"         hEDJJJJJHJHSQa  O              ",
"       # wWSHHJJJJHJHSQa  O             ",
"       X >BKHHHJJJJHJHSQa  O            ",
"        + r~CJHHJJJJHJHSQa  X           ",
"        X *zYAJHHJJJJHJHSQi             ",
"         @ <VYCHJHHJJHHJHB^f X          ",
"          # 5nQHAGHHHHGSFRH0 X          ",
"           # =uPQULJJKIWTj2 X           ",
"            @  4rlMFGZcu9  #            ",
"             XO  #-17>%   O             ",
"               O@      O@               ",
"                  XoOX                  ",
"                                        ",
"                                        ",
"                                        ",
"                                        ",
"                                        ",
"                                        "
};
