/* XPM */
static char *result[] = {
/* columns rows colors chars-per-pixel */
"40 40 85 1 ",
"  c black",
". c #010100",
"X c #020100",
"o c #020200",
"O c #030201",
"+ c #030301",
"@ c #090703",
"# c #090803",
"$ c #0E0C04",
"% c #0F0D05",
"& c #131106",
"* c #141207",
"= c #191508",
"- c #1C1909",
"; c #211C0B",
": c #231F0C",
"> c #24200C",
", c #2A250E",
"< c #2B250E",
"1 c #2E2810",
"2 c #2F2910",
"3 c #312B11",
"4 c #322B11",
"5 c #332C11",
"6 c #342D12",
"7 c #372F12",
"8 c #373012",
"9 c #50461C",
"0 c #53481C",
"q c #594D1E",
"w c #5A4E1F",
"e c #796A2A",
"r c #907D32",
"t c #938033",
"y c #A18C37",
"u c #A48F39",
"i c #A69039",
"p c #A7923A",
"a c #A8923A",
"s c #A9933A",
"d c #A9933B",
"f c #B59E3F",
"g c #C7AD45",
"h c #CDB347",
"j c #D3B749",
"k c #D6BA4A",
"l c #DDC04D",
"z c #DEC14D",
"x c #E2C54F",
"c c #E3C54F",
"v c #E3C64F",
"b c #E7C950",
"n c #F2D354",
"m c #F4D555",
"M c #F6D655",
"N c #F6D656",
"B c #F7D656",
"V c #F6D756",
"C c #F7D756",
"Z c #F8D856",
"A c #F9D957",
"S c #FAD957",
"D c #FADA57",
"F c #FBDA57",
"G c #FBDB57",
"H c #FCDB58",
"J c #FDDC58",
"K c #FEDD58",
"L c #FFDE59",
"P c #FFDF59",
"I c #FFE059",
"U c #FFE05A",
"Y c #FFE15A",
"T c #FFE25A",
"R c #FFE45B",
"E c #FFE55B",
"W c #FFE65C",
"Q c #FFE75C",
"! c #FFE85D",
"~ c #FFE95D",
"^ c #FFEB5E",
"/ c #FFEC5E",
"( c #FFED5F",
") c #FFEE5F",
"_ c #FFF060",
/* pixels */
"                                        ",
"                                        ",
"                                        ",
"                                        ",
"                                        ",
"                                        ",
"                                        ",
"                                        ",
"                                        ",
"                                        ",
"           ..              ..           ",
"          .   .          .   .          ",
"         + ws  o        o  dq +         ",
"        o 6K_i  o      o  i_K6 o        ",
"          h!C/p  o    o  p/C!g          ",
"       + 0!GKF/p  o  o  p/FKHQ9 O       ",
"       X s^FLKF/p  XX  p/FKLF^u X       ",
"        @vTJKLKF/p    p/FKLKJTc@        ",
"      . >SPKKKLKF/a  a/FKLKKKPS: .      ",
"      X 3GPKLLKLKF(yy(FKLKLLKPD1 X      ",
"      . <APKLLLKLKHWWHKLKLLLKPA, .      ",
"      . -VIKKLLLKLKHHKLKLLLKKUm= .      ",
"        OkRJKLLLLKLKKLKLLLLKJEjo        ",
"       O r/DLKLLLLLLLLLLLLKLD/r O       ",
"       o 7YKKKKLLLLLLLLLLKKKKY7 o       ",
"        o u/ALKKLLLLLLLLKKLA(u o        ",
"        . *bWDLKKLLLLLLKKLDWx& .        ",
"         O 8ZWAKKLKLLKLKKAWM5 O         ",
"          + 4z)PFGJKKJGFP)l2 +          ",
"           + %tN^~TYYT~^Bt% +           ",
"            O  ;efcnncfe;  O            ",
"             .O   #$$#   O.             ",
"               .+      +.               ",
"                                        ",
"                                        ",
"                                        ",
"                                        ",
"                                        ",
"                                        ",
"                                        "
};
