/* XPM */
static char *result[] = {
/* columns rows colors chars-per-pixel */
"40 40 93 2 ",
"   c black",
".  c #000001",
"X  c #07040D",
"o  c #0F091C",
"O  c #0F091D",
"+  c #130B22",
"@  c #130B23",
"#  c #1A0F30",
"$  c #1B0F31",
"%  c #1F1238",
"&  c #1F1239",
"*  c #1F123A",
"=  c #20133B",
"-  c #21133B",
";  c #20133C",
":  c #22133D",
">  c #22133E",
",  c #22143E",
"<  c #22143F",
"1  c #23143F",
"2  c #2A184C",
"3  c #2A184D",
"4  c #331D5C",
"5  c #331D5D",
"6  c #3B226B",
"7  c #44287D",
"8  c #45287E",
"9  c #45287F",
"0  c #46297F",
"q  c #472981",
"w  c #472982",
"e  c #472A82",
"r  c #482A83",
"t  c #4A2B88",
"y  c #4B2C89",
"u  c #533096",
"i  c #533097",
"p  c #533098",
"a  c #543198",
"s  c #543199",
"d  c #54319A",
"f  c #56329D",
"g  c #56329E",
"h  c #57339E",
"j  c #57339F",
"k  c #5A34A4",
"l  c #5B35A6",
"z  c #633AB5",
"x  c #643AB6",
"c  c #7443D3",
"v  c #7444D4",
"b  c #7544D5",
"n  c #7544D6",
"m  c #7644D6",
"M  c #7644D7",
"N  c #7645D7",
"B  c #7946DC",
"V  c #7946DD",
"C  c #7A47DE",
"Z  c #7E49E6",
"A  c #7F4AE9",
"S  c #864EF5",
"D  c #874FF6",
"F  c #874FF7",
"G  c #884FF8",
"H  c #8850F9",
"J  c #8950F9",
"K  c #8950FA",
"L  c #8950FB",
"P  c #8A51FC",
"I  c #8A51FD",
"U  c #8B51FE",
"Y  c #8C52FF",
"T  c #8D52FF",
"R  c #8D53FF",
"E  c #8E53FF",
"W  c #8F53FF",
"Q  c #8F54FF",
"!  c #9054FF",
"~  c #9255FF",
"^  c #9356FF",
"/  c #9456FF",
"(  c #9457FF",
")  c #9557FF",
"_  c #9658FF",
"`  c #9758FF",
"'  c #9959FF",
"]  c #9A5AFF",
"[  c #9B5AFF",
"{  c #9C5BFF",
"}  c #9F5DFF",
"|  c #A15EFF",
" . c #A35FFF",
/* pixels */
".                                                                             . ",
"  1 y 7 0 0 0 7 t 2   6 r 8 0 0 9 9 e O O e 9 9 0 0 8 r 6   2 t 7 0 0 0 7 y 1   ",
"  y  .( ` ` ` ) | l   A { _ ` ` ` ` [ , , [ ` ` ` ` _ { A   l | ) ` ` ` (  .y   ",
"  7 ( S K K K D ~ i   c R G K K J J Y % % Y J J K K G R c   i ~ D K K K S ( 7   ",
"  0 ` K Y Y Y L ) s   N ! I Y Y U U Q * * Q U U Y Y I ! N   s ) L Y Y Y K ` 0   ",
"  0 ` K Y Y Y L ) s   N ! I Y Y U U Q * * Q U U Y Y I ! N   s ) L Y Y Y K ` 0   ",
"  0 ` K Y Y Y L ) s   N ! I Y Y U U Q * * Q U U Y Y I ! N   s ) L Y Y Y K ` 0   ",
"  7 ) D L L L F ^ i   v E H L L K K T & & T K K L L H E v   i ^ F L L L D ) 7   ",
"  t | ~ ) ) ) ^ } k   Z ] / ) ) ) ) ' : : ' ) ) ) ) / ] Z   k } ^ ) ) ) ~ | t   ",
"  3 l i d d d p k 5   w j s d d d d g @ @ g d d d d s j w   5 k p d d d i l 3   ",
"                                                                                ",
"  6 A c N N N v Z q   z C b N N m M B # # B M m N N b C z   q Z v N N N c A 6   ",
"  r { R ! ! ! E ] h   C ) Q ! ! ! ! / - - / ! ! ! ! Q ) C   h ] E ! ! ! R { r   ",
"  8 _ G I I I H / a   b Q L I I P P E & & E P P I I L Q b   a / H I I I G _ 8   ",
"  0 ` K Y Y Y L ) s   N ! I Y Y U U Q * * Q U U Y Y I ! N   s ) L Y Y Y K ` 0   ",
"  0 ` K Y Y Y L ) s   N ! I Y Y U U Q * * Q U U Y Y I ! N   s ) L Y Y Y K ` 0   ",
"  9 ` J U U U K ) s   M ! P U U U U W & & W U U U U P ! M   s ) K U U U J ` 9   ",
"  9 ` J U U U K ) s   M ! P U U U U W & & W U U U U P ! M   s ) K U U U J ` 9   ",
"  e [ Y Q Q Q T ' f   B / E Q Q W W ^ = = ^ W W Q Q E / B   f ' T Q Q Q Y [ e   ",
"  O < & * * * & > @   $ ; * * * * * = X X = * * * * * ; $   @ > & * * * & < O   ",
"  o , % & & & & : +   # - & & & & & = X X = & & & & & - #   + : & & & & % , o   ",
"  e [ Y Q Q Q T ' f   B / E Q Q W W ^ = = ^ W W Q Q E / B   f ' T Q Q Q Y [ e   ",
"  9 ` J U U U K ) s   M ! P U U U U W & & W U U U U P ! M   s ) K U U U J ` 9   ",
"  9 ` J U U U K ) s   m ! P U U U U W & & W U U U U P ! m   s ) K U U U J ` 9   ",
"  0 ` K Y Y Y L ) s   N ! I Y Y U U Q * * Q U U Y Y I ! N   s ) L Y Y Y K ` 0   ",
"  0 ` K Y Y Y L ) s   N ! I Y Y U U Q * * Q U U Y Y I ! N   s ) L Y Y Y K ` 0   ",
"  8 _ G I I I H / a   b Q L I I P P E & & E P P I I L Q b   a / H I I I G _ 8   ",
"  r { R ! ! ! E ] h   C ) Q ! ! ! ! / = = / ! ! ! ! Q ) C   h ] E ! ! ! R { r   ",
"  6 A c N N N v Z w   x C n N N M M V $ $ V M M N N n C x   w Z v N N N c A 6   ",
"                                                                                ",
"  2 l u s s s i k 4   q h a s s s s f + + f s s s s a h q   4 k i s s s u l 2   ",
"  t | ~ ) ) ) ^ } k   Z ] / ) ) ) ) ' : : ' ) ) ) ) / ] Z   k } ^ ) ) ) ~ | t   ",
"  7 ) D L L L F ^ i   v E H L L K K T & & T K K L L H E v   i ^ F L L L D ) 7   ",
"  0 ` K Y Y Y L ) s   N ! I Y Y U U Q * * Q U U Y Y I ! N   s ) L Y Y Y K ` 0   ",
"  0 ` K Y Y Y L ) s   N ! I Y Y U U Q * * Q U U Y Y I ! N   s ) L Y Y Y K ` 0   ",
"  0 ` K Y Y Y L ) s   N ! I Y Y U U Q * * Q U U Y Y I ! N   s ) L Y Y Y K ` 0   ",
"  7 ( S K K K D ~ i   c R G K K J J Y % % Y J J K K G R c   i ~ D K K K S ( 7   ",
"  y  .( ` ` ` ) | l   A { _ ` ` ` ` [ , , [ ` ` ` ` _ { A   l | ) ` ` ` (  .y   ",
"  1 y 7 0 0 0 7 t 2   6 r 8 0 0 9 9 e O O e 9 9 0 0 8 r 6   2 t 7 0 0 0 7 y 1   ",
".                                                                             . "
};
